<svg xmlns="http://www.w3.org/2000/svg" viewBox="0 0 433.82 91.03"><defs><style>.cls-1{fill:#93c;}.cls-2{font-size:36.28px;fill:#fff;stroke:#fff;stroke-miterlimit:10;font-family:CenturyGothic, Century Gothic;letter-spacing:-0.02em;}</style></defs><title>Ресурс 1</title><g id="Слой_2" data-name="Слой 2"><g id="Layer_1" data-name="Layer 1"><path d="M85.87,30.05l-3.51,3.63Q78,29.43,73.8,29.43a6.47,6.47,0,0,0-4.56,1.75,5.42,5.42,0,0,0-1.9,4.09,6.07,6.07,0,0,0,1.56,3.94q1.56,1.91,6.57,4.48,6.1,3.16,8.29,6.08a11.08,11.08,0,0,1,2.15,6.67,12,12,0,0,1-3.67,8.85,12.53,12.53,0,0,1-9.18,3.63,16,16,0,0,1-7-1.6,15.21,15.21,0,0,1-5.53-4.41L64,59q4.18,4.72,8.87,4.72a8,8,0,0,0,5.59-2.11,6.51,6.51,0,0,0,2.31-5,6.35,6.35,0,0,0-1.52-4.17Q77.67,50.72,72.32,48q-5.75-3-7.82-5.85a11,11,0,0,1-2.07-6.59,10.72,10.72,0,0,1,3.3-8,11.5,11.5,0,0,1,8.34-3.2Q79.93,24.32,85.87,30.05Z"/><path d="M100.3,9.66h5.46V25.41h8.66v4.72h-8.66V67.84H100.3V30.13H92.85V25.41h7.45Z"/><path d="M120.54,25.41h5.58v6.2a19.58,19.58,0,0,1,5.26-5.48,10.38,10.38,0,0,1,5.77-1.81A10,10,0,0,1,142,25.76l-2.85,4.6a7.61,7.61,0,0,0-2.89-.74A7.89,7.89,0,0,0,131,31.87a14.17,14.17,0,0,0-3.86,7q-1,3.63-1,14.66V67.84h-5.58Z"/><path d="M166.71,24.32A21,21,0,0,1,183,31.42a22.08,22.08,0,0,1,5.86,15.33,22.08,22.08,0,0,1-6.19,15.54,22.43,22.43,0,0,1-31.88,0,22.08,22.08,0,0,1-6.19-15.54,22,22,0,0,1,5.86-15.29A21,21,0,0,1,166.71,24.32Zm0,5.34a15.75,15.75,0,0,0-11.7,5,16.81,16.81,0,0,0-4.89,12.17,17.25,17.25,0,0,0,2.23,8.58,15.8,15.8,0,0,0,6,6.14,17.14,17.14,0,0,0,16.67,0,15.81,15.81,0,0,0,6-6.14,17.25,17.25,0,0,0,2.23-8.58,16.78,16.78,0,0,0-4.91-12.17A15.77,15.77,0,0,0,166.69,29.66Z"/><path d="M199,25.41h5.46v7.8a21.9,21.9,0,0,1,7.44-6.67,19.78,19.78,0,0,1,9.39-2.22,21,21,0,0,1,15.47,6.51,21.52,21.52,0,0,1,6.43,15.68,21.91,21.91,0,0,1-6.37,15.89,21.45,21.45,0,0,1-24.68,4.43,23.45,23.45,0,0,1-7.67-6.28V83.36H199Zm21.84,4.17a16,16,0,0,0-11.93,4.95,16.9,16.9,0,0,0-4.84,12.31,17.46,17.46,0,0,0,2.16,8.69,15.75,15.75,0,0,0,6.19,6.12,17.11,17.11,0,0,0,8.5,2.26,16,16,0,0,0,8.27-2.28,16.72,16.72,0,0,0,6.17-6.37,17.21,17.21,0,0,0,0-17.14,16.44,16.44,0,0,0-14.53-8.53Z"/><path d="M251.33,25.41h5.58v6.2a19.58,19.58,0,0,1,5.26-5.48,10.38,10.38,0,0,1,5.77-1.81,10,10,0,0,1,4.84,1.44l-2.85,4.6a7.61,7.61,0,0,0-2.89-.74,7.89,7.89,0,0,0-5.26,2.24,14.17,14.17,0,0,0-3.86,7q-1,3.63-1,14.66V67.84h-5.58Z"/><path d="M297.51,24.32a21,21,0,0,1,16.25,7.1,22.08,22.08,0,0,1,5.86,15.33,22.08,22.08,0,0,1-6.19,15.54,22.43,22.43,0,0,1-31.88,0,22.08,22.08,0,0,1-6.19-15.54,22,22,0,0,1,5.86-15.29A21,21,0,0,1,297.51,24.32Zm0,5.34a15.75,15.75,0,0,0-11.7,5,16.81,16.81,0,0,0-4.89,12.17,17.25,17.25,0,0,0,2.23,8.58,15.8,15.8,0,0,0,6,6.14,17.14,17.14,0,0,0,16.67,0,15.81,15.81,0,0,0,6-6.14,17.25,17.25,0,0,0,2.23-8.58,16.78,16.78,0,0,0-4.91-12.17A15.77,15.77,0,0,0,297.49,29.66Z"/><path d="M9.14,50.95q2.14-1.11,4.6-2.13a17,17,0,0,1-.14-2.13,17.22,17.22,0,0,1,2.28-8.57,16.47,16.47,0,0,1,14.55-8.53,16.06,16.06,0,0,1,11.94,4.95,16.41,16.41,0,0,1,4.16,7.12h1.41a41.24,41.24,0,0,1,4.31.22V31.41H46.87v1.8a21.51,21.51,0,0,0-7.43-6.67A20,20,0,0,0,30,24.32,21,21,0,0,0,14.5,30.83,21.5,21.5,0,0,0,8.07,46.51a24.62,24.62,0,0,0,.46,4.77Z"/><path d="M47.2,46.38c0,.16,0,.31,0,.46a17.45,17.45,0,0,1-2.16,8.69,15.8,15.8,0,0,1-6.17,6.12,17,17,0,0,1-8.49,2.26,16.13,16.13,0,0,1-8.32-2.28,16.72,16.72,0,0,1-6.17-6.37c-.29-.52-.54-1-.78-1.56a40.7,40.7,0,0,0-5,2.48,22,22,0,0,0,3.51,5.33l.19,0,.23,0,.2.13A1.56,1.56,0,0,1,15,63a20.62,20.62,0,0,0,14.78,6,20.83,20.83,0,0,0,9.34-2.11,23.4,23.4,0,0,0,7.7-6.28v7.29h5.38V46.64A27.92,27.92,0,0,0,47.2,46.38Z"/><circle cx="29.55" cy="44.27" r="7.75"/><path d="M21.82,43.94c0,.11,0,.21,0,.32a7.7,7.7,0,0,0,1.43,4.47,101.38,101.38,0,0,1,14-3.36,7.55,7.55,0,0,0-.85-4.81,105.69,105.69,0,0,0-13.4,3Z"/><path d="M59.56,42.26A8.22,8.22,0,0,0,57,40.87a27.7,27.7,0,0,0-9.07-1.24,71,71,0,0,0-9.51.64,9.7,9.7,0,0,1,.86,4c0,.27,0,.53,0,.8,1.74-.24,3.51-.43,5.31-.56a32,32,0,0,1,8.56.3,3.19,3.19,0,0,1,2,1c.2.4-.3,1.24-1.34,2.22l-.57.55c-.38.37-.85.83-1,.93l-.28.24,0,.18-.38.48c-.49.61-.67.84-.73,1.14a1.23,1.23,0,0,0,.32,1.19,1.2,1.2,0,0,0,.25.18l-.87,1.65,2.83-1.46c1-.5,1.81-1,2.58-1.46,2.48-1.57,4-3.08,4.74-4.64A3.85,3.85,0,0,0,59.56,42.26Z"/><path d="M17.42,50.75c.83-.32,1.67-.64,2.52-.93l1.31-.45a9.68,9.68,0,0,1-1.44-4.8A72.78,72.78,0,0,0,9.14,48.95C4.75,51.22,1.9,53.49.67,55.68h0a4.1,4.1,0,0,0-.33,3.83c.63,1.33,2.19,2.41,4.39,3.05a24.43,24.43,0,0,0,6.77.79q.91,0,1.9,0l.93,0L19.08,63,15,61.47a1.49,1.49,0,0,0-.7-1.79l-.2-.13-.23,0-1.21-.12c-1.51-.14-5-.48-5.74-.86-.26-.14-.59-.36-.63-.63A2,2,0,0,1,7,56.59C9.31,54.1,14.06,52.06,17.42,50.75Z"/><circle class="cls-1" cx="388.3" cy="45.52" r="45.52"/><text class="cls-2" transform="translate(361.3 54.31)">net</text></g></g></svg>