<svg version="1.1" xmlns="http://www.w3.org/2000/svg" xmlns:xlink="http://www.w3.org/1999/xlink" x="0px" y="0px" viewBox="0 0 64 64">

    <symbol id="icon_heart" viewBox="0 0 51 47">
        <path fill-rule="evenodd"  d="M25.500,47.000 L21.930,43.424 C8.670,31.674 0.001,23.755 0.001,14.049 C0.001,6.131 6.120,0.000 14.025,0.000 C18.360,0.000 22.695,2.043 25.500,5.364 C28.305,2.043 32.640,0.000 36.975,0.000 C44.880,0.000 51.000,6.131 51.000,14.049 C51.000,23.755 42.330,31.674 29.070,43.424 L25.500,47.000 Z"/>
    </symbol>

    <symbol id="icon_wallet" viewBox="0 0 52 49" width="48px" height="48px">
        <path fill-rule="evenodd"  d="M50.400,35.601 C50.118,35.860 49.783,36.062 49.409,36.186 C49.120,36.282 48.814,36.338 48.491,36.338 L48.417,36.338 L31.599,36.338 C30.035,36.338 28.766,35.077 28.766,33.523 L28.766,30.405 L28.766,29.533 L28.766,28.660 L28.766,27.259 C28.766,25.704 30.035,24.444 31.599,24.444 L44.315,24.444 L47.482,24.444 L48.360,24.444 L48.417,24.444 L48.491,24.444 C48.814,24.444 49.120,24.500 49.409,24.595 C49.783,24.725 50.118,24.922 50.400,25.181 C50.967,25.693 51.324,26.436 51.324,27.259 L51.324,33.523 C51.324,34.345 50.967,35.088 50.400,35.601 ZM37.515,30.017 C37.515,29.239 36.881,28.610 36.099,28.610 L35.396,28.610 L35.158,28.610 C34.829,28.610 34.529,28.727 34.286,28.913 C33.951,29.166 33.741,29.566 33.741,30.017 L33.741,30.951 C33.741,31.728 34.376,32.359 35.158,32.359 L36.099,32.359 C36.881,32.359 37.515,31.728 37.515,30.951 L37.515,30.017 ZM46.933,22.490 L46.055,22.490 L31.594,22.490 C31.401,22.490 31.208,22.501 31.021,22.523 C29.899,22.654 28.896,23.171 28.148,23.937 C27.304,24.798 26.783,25.975 26.783,27.269 L26.783,29.205 L26.783,30.078 L26.783,30.951 L26.783,33.529 C26.783,36.169 28.942,38.314 31.599,38.314 L48.411,38.314 L48.411,46.167 C48.411,47.720 47.142,48.982 45.579,48.982 L3.698,48.982 C2.134,48.982 0.865,47.720 0.865,46.167 L0.865,18.353 L0.865,15.144 L0.865,14.806 C0.865,14.553 0.905,14.305 0.967,14.069 C1.069,13.692 1.251,13.348 1.488,13.050 C2.009,12.402 2.809,11.991 3.704,11.991 L5.393,11.991 L5.897,11.991 L8.617,11.991 L11.847,11.991 L36.478,11.991 L43.181,11.991 L44.060,11.991 L44.938,11.991 L45.584,11.991 C47.148,11.991 48.417,13.253 48.411,14.806 L48.411,22.490 L47.812,22.490 L46.933,22.490 ZM19.111,10.021 L33.543,6.109 L38.268,4.826 C38.518,4.758 38.767,4.724 39.017,4.724 C40.263,4.724 41.408,5.546 41.748,6.801 L42.632,10.021 L35.492,10.021 L19.111,10.021 ZM9.903,10.021 L27.910,1.155 C29.310,0.463 31.010,1.037 31.707,2.427 L32.772,4.567 L12.657,10.021 L9.903,10.021 Z"/>
    </symbol>

    <symbol id="icon_kit" viewBox="0 0 55 48">
        <path fill-rule="evenodd"  d="M52.222,11.879 L39.286,11.879 L39.286,2.909 C39.286,1.309 38.080,-0.000 36.508,-0.000 L18.889,-0.000 C17.317,-0.000 15.952,1.309 15.952,2.909 L15.952,11.879 L2.936,11.879 C1.358,11.879 0.000,13.181 0.000,14.788 L0.000,45.091 C0.000,46.697 1.358,48.000 2.936,48.000 L52.222,48.000 C53.800,48.000 55.000,46.697 55.000,45.091 L55.000,14.788 C55.000,13.181 53.800,11.879 52.222,11.879 ZM19.762,3.879 L35.476,3.879 L35.476,11.879 L19.762,11.879 L19.762,3.879 ZM37.381,33.939 L31.429,33.939 L31.429,40.000 L23.571,40.000 L23.571,33.939 L17.619,33.939 L17.619,25.939 L23.571,25.939 L23.571,19.879 L31.429,19.879 L31.429,25.939 L37.381,25.939 L37.381,33.939 Z"/>
    </symbol>

    <symbol id="icon_check" viewBox="0 0 30 30">
        <path fill-rule="evenodd" d="M15.000,30.000 C6.716,30.000 -0.000,23.284 -0.000,15.000 C-0.000,6.716 6.716,-0.000 15.000,-0.000 C23.285,-0.000 30.000,6.716 30.000,15.000 C30.000,23.284 23.285,30.000 15.000,30.000 ZM15.000,3.333 C8.557,3.333 3.333,8.557 3.333,15.000 C3.333,21.443 8.557,26.667 15.000,26.667 C21.443,26.667 26.666,21.443 26.666,15.000 C26.666,8.557 21.443,3.333 15.000,3.333 ZM7.471,15.719 L9.780,13.314 L13.238,16.634 L20.161,8.889 L22.646,11.111 L13.422,21.431 L7.471,15.719 Z"/>
    </symbol>

    <symbol id="icon_pencil" viewBox="0 0 30 30">
        <path fill-rule="evenodd"  d="M14.999,0.000 C6.716,0.000 -0.000,6.716 -0.000,14.999 C-0.000,23.284 6.716,30.000 14.999,30.000 C23.284,30.000 30.000,23.284 30.000,14.999 C30.000,6.716 23.284,0.000 14.999,0.000 ZM22.130,10.794 L20.706,12.219 L17.805,9.320 L16.705,10.420 L19.605,13.320 L12.492,20.432 L9.592,17.532 L8.492,18.633 L11.392,21.532 L10.683,22.241 L10.669,22.228 C10.591,22.357 10.463,22.452 10.311,22.486 L7.607,23.088 C7.567,23.098 7.525,23.102 7.484,23.102 C7.337,23.102 7.194,23.044 7.087,22.937 C6.951,22.801 6.894,22.606 6.936,22.417 L7.539,19.713 C7.573,19.562 7.668,19.434 7.797,19.355 L7.783,19.342 L19.230,7.894 C19.398,7.726 19.670,7.726 19.838,7.894 L22.131,10.186 C22.298,10.354 22.298,10.626 22.130,10.794 Z"/>
    </symbol>

    <symbol id="icon_" viewBox="0 0 32 32">

    </symbol>

</svg>
