<svg xmlns="http://www.w3.org/2000/svg" viewBox="0 0 32 32">
    <defs>
        <style>
            .cls-1{fill:none;}
            .cls-2{fill:#fff;}
        </style>
    </defs>
    <title>Ресурс 1</title>
    <g id="Слой_2" data-name="Слой 2">
        <g id="settings">
            <rect id="bounding_box" data-name="bounding box" class="cls-1" width="32" height="32"/>
            <g id="icon"><path class="cls-2" d="M16,19a3,3,0,1,1,3-3A3,3,0,0,1,16,19Zm0-4a1,1,0,1,0,1,1A1,1,0,0,0,16,15Z"/>
                <path class="cls-2" d="M16,26a2,2,0,0,1-2-2v-.17a1,1,0,0,0-.49-.93,2.18,2.18,0,0,0-.65-.27,1,1,0,0,0-1,.31l-.11.13a2.05,2.05,0,0,1-2.83,0,2,2,0,0,1,0-2.83l.13-.11a1,1,0,0,0,.31-1,2.17,2.17,0,0,0-.27-.65A1,1,0,0,0,8.15,18H8a2,2,0,0,1,0-4h.16a1,1,0,0,0,.93-.49,2.18,2.18,0,0,0,.27-.65,1,1,0,0,0-.33-1l-.11-.1a2,2,0,0,1,0-2.83,2,2,0,0,1,2.83,0l.11.13a1,1,0,0,0,1,.31,2.18,2.18,0,0,0,.65-.27A1,1,0,0,0,14,8.15V8a2,2,0,0,1,4,0v.17a1,1,0,0,0,.49.93,2.18,2.18,0,0,0,.65.27,1,1,0,0,0,1-.31l.11-.13a2.05,2.05,0,0,1,2.83,0,2,2,0,0,1,0,2.83l-.13.11a1,1,0,0,0-.31,1,2.17,2.17,0,0,0,.27.65,1,1,0,0,0,.95.49H24a2,2,0,0,1,0,4h-.16a1,1,0,0,0-.93.49,2.18,2.18,0,0,0-.27.65,1,1,0,0,0,.33,1l.11.1a2,2,0,0,1,0,2.83,2.05,2.05,0,0,1-2.83,0l-.11-.13a1,1,0,0,0-1-.31,2.17,2.17,0,0,0-.65.27,1,1,0,0,0-.49.95V24A2,2,0,0,1,16,26Zm-3.4-5.4a3.19,3.19,0,0,1,.73.08,4.16,4.16,0,0,1,1.25.52A3,3,0,0,1,16,23.45a3,3,0,0,1,1.42-2.24,4.16,4.16,0,0,1,1.25-.52,3,3,0,0,1,2.6.58,3,3,0,0,1-.58-2.6,4.14,4.14,0,0,1,.52-1.25A3,3,0,0,1,23.45,16a3,3,0,0,1-2.25-1.42,4.13,4.13,0,0,1-.52-1.25,3,3,0,0,1,.58-2.6,3,3,0,0,1-2.6.58,4.16,4.16,0,0,1-1.25-.52A3,3,0,0,1,16,8.55a3,3,0,0,1-1.42,2.24,4.16,4.16,0,0,1-1.25.52,3,3,0,0,1-2.6-.58,3,3,0,0,1,.58,2.6,4.14,4.14,0,0,1-.52,1.25A3,3,0,0,1,8.55,16a3,3,0,0,1,2.25,1.42,4.13,4.13,0,0,1,.52,1.25,3,3,0,0,1-.58,2.6A3,3,0,0,1,12.6,20.6Z"/>
            </g>
        </g>
    </g>
</svg>