<svg xmlns="http://www.w3.org/2000/svg" xmlns:xlink="http://www.w3.org/1999/xlink" width="35px" height="35px">
    <path fill-rule="evenodd"  fill="rgb(127, 197, 245)" d="M17.500,35.007 C7.835,35.007 0.000,27.170 0.000,17.503 C0.000,7.836 7.835,-0.000 17.500,-0.000 C27.166,-0.000 35.000,7.836 35.000,17.503 C35.000,27.170 27.166,35.007 17.500,35.007 ZM17.500,3.889 C9.983,3.889 3.889,9.985 3.889,17.503 C3.889,25.021 9.983,31.117 17.500,31.117 C25.018,31.117 31.112,25.022 31.112,17.503 C31.112,9.984 25.018,3.889 17.500,3.889 ZM8.716,18.341 L11.410,15.535 L15.445,19.410 L23.521,10.373 L26.421,12.965 L15.659,25.007 L8.716,18.341 Z"/>
</svg>